<svg width="28" height="21" viewBox="0 0 28 21" fill="none" xmlns="http://www.w3.org/2000/svg">
<path d="M17.128 21C16.8493 21 16.5707 20.8922 16.3507 20.6612C15.9254 20.2147 15.9254 19.4755 16.3507 19.029L24.4754 10.4981L16.3507 1.96719C15.9254 1.52063 15.9254 0.781486 16.3507 0.334923C16.776 -0.111641 17.4799 -0.111641 17.9052 0.334923L26.8072 9.68193C27.2325 10.1285 27.2325 10.8676 26.8072 11.3142L17.9052 20.6612C17.6852 20.8922 17.4066 21 17.128 21Z" fill="#C5C5C5"/>
<path d="M25.7819 11.6528H1.09991C0.498626 11.6528 0 11.1293 0 10.4979C0 9.86657 0.498626 9.34302 1.09991 9.34302H25.7819C26.3832 9.34302 26.8818 9.86657 26.8818 10.4979C26.8818 11.1293 26.3832 11.6528 25.7819 11.6528Z" fill="#C5C5C5"/>
</svg>
