<svg width="56" height="63" viewBox="0 0 56 63" fill="none" xmlns="http://www.w3.org/2000/svg">
<path d="M41.5202 63H14.4009C9.21231 63 5.3209 61.6521 2.90761 58.9856C0.494314 56.3191 -0.440867 52.4512 0.192623 47.4405L2.90761 25.4637C3.69193 18.9879 5.38124 13.186 17.146 13.186H38.8656C50.6003 13.186 52.2896 18.9879 53.104 25.4637L55.819 47.4405C56.4223 52.4512 55.5173 56.3484 53.104 58.9856C50.6003 61.6521 46.739 63 41.5202 63ZM17.1159 17.5814C8.42799 17.5814 8.00566 20.9218 7.37217 25.9618L4.65725 47.9386C4.20476 51.66 4.74772 54.3851 6.28619 56.0553C7.82467 57.7256 10.5396 58.5753 14.4009 58.5753H41.5202C45.3815 58.5753 48.0965 57.7256 49.6349 56.0553C51.1734 54.3851 51.7164 51.66 51.2639 47.9386L48.549 25.9618C47.9155 20.8925 47.5233 17.5814 38.8053 17.5814H17.1159Z" fill="#292D32"/>
<path d="M40.0409 21.9767C38.804 21.9767 37.7784 20.9805 37.7784 19.7791V9.52326C37.7784 6.3586 35.7573 4.39535 32.4993 4.39535H23.4495C20.1915 4.39535 18.1704 6.3586 18.1704 9.52326V19.7791C18.1704 20.9805 17.1447 21.9767 15.9079 21.9767C14.6711 21.9767 13.6454 20.9805 13.6454 19.7791V9.52326C13.6454 3.92651 17.6877 0 23.4495 0H32.4993C38.2611 0 42.3033 3.92651 42.3033 9.52326V19.7791C42.3033 20.9805 41.2777 21.9767 40.0409 21.9767Z" fill="#292D32"/>
<path d="M53.3441 48.4364H15.9079C14.6711 48.4364 13.6454 47.4401 13.6454 46.2387C13.6454 45.0373 14.6711 44.041 15.9079 44.041H53.3441C54.581 44.041 55.6066 45.0373 55.6066 46.2387C55.6066 47.4401 54.581 48.4364 53.3441 48.4364Z" fill="#292D32"/>
</svg>
