<svg width="61" height="49" viewBox="0 0 61 49" fill="none" xmlns="http://www.w3.org/2000/svg">
<g id="&#240;&#159;&#166;&#134; icon &#34;message&#34;">
<g id="Group">
<path id="Vector" d="M20.875 39.4407H19.5C8.5 39.4407 3 37.2971 3 26.5793V15.8614C3 7.28714 8.5 3 19.5 3H41.5C52.5 3 58 7.28714 58 15.8614V26.5793C58 35.1535 52.5 39.4407 41.5 39.4407H40.125C39.2725 39.4407 38.4475 39.7622 37.925 40.2981L33.8 44.5852C31.985 46.4716 29.015 46.4716 27.2 44.5852L23.075 40.2981C22.635 39.8265 21.6175 39.4407 20.875 39.4407Z" stroke="#292D32" stroke-width="4.5686" stroke-miterlimit="10" stroke-linecap="round" stroke-linejoin="round"/>
<g id="Group_2">
<path id="Vector_2" d="M41.4903 22.2922H41.5147" stroke="#292D32" stroke-width="6.09146" stroke-linecap="round" stroke-linejoin="round"/>
<path id="Vector_3" d="M30.4876 22.2922H30.5123" stroke="#292D32" stroke-width="6.09146" stroke-linecap="round" stroke-linejoin="round"/>
<path id="Vector_4" d="M19.4849 22.2922H19.5096" stroke="#292D32" stroke-width="6.09146" stroke-linecap="round" stroke-linejoin="round"/>
</g>
</g>
</g>
</svg>
