<svg width="25" height="25" viewBox="0 0 25 25" fill="none" xmlns="http://www.w3.org/2000/svg">
<path d="M18.4988 24.9883H6.50123C3.29578 24.9883 1.25803 23.0764 1.07487 19.8824L0.479569 10.4378C0.387985 9.00681 0.88025 7.63305 1.86478 6.59128C2.83786 5.54951 4.21163 4.95421 5.63118 4.95421C5.99752 4.95421 6.35241 4.7367 6.52413 4.39326L7.34838 2.75619C8.02382 1.41677 9.71811 0.375 11.1949 0.375H13.8165C15.2933 0.375 16.9762 1.41677 17.6516 2.74474L18.4759 4.41615C18.6476 4.7367 18.991 4.95421 19.3688 4.95421C20.7884 4.95421 22.1621 5.54951 23.1352 6.59128C24.1197 7.64449 24.612 9.00681 24.5204 10.4378L23.9251 19.8939C23.7191 23.1337 21.7386 24.9883 18.4988 24.9883ZM11.1949 2.0922C10.3478 2.0922 9.27165 2.75619 8.88242 3.52321L8.05816 5.17172C7.57734 6.09901 6.65005 6.67141 5.63118 6.67141C4.66955 6.67141 3.77659 7.06065 3.11261 7.75898C2.46008 8.4573 2.12808 9.37315 2.19677 10.3233L2.79207 19.7794C2.92944 22.0919 4.17728 23.271 6.50123 23.271H18.4988C20.8113 23.271 22.0591 22.0919 22.2079 19.7794L22.8032 10.3233C22.8605 9.37315 22.5399 8.4573 21.8874 7.75898C21.2234 7.06065 20.3305 6.67141 19.3688 6.67141C18.3499 6.67141 17.4227 6.09901 16.9418 5.19462L16.1061 3.52321C15.7283 2.76764 14.6522 2.10365 13.8051 2.10365H11.1949V2.0922Z" fill="#292D32"/>
<path d="M14.2176 8.96134H10.7832C10.3138 8.96134 9.92458 8.57211 9.92458 8.10274C9.92458 7.63337 10.3138 7.24414 10.7832 7.24414H14.2176C14.687 7.24414 15.0762 7.63337 15.0762 8.10274C15.0762 8.57211 14.687 8.96134 14.2176 8.96134Z" fill="#292D32"/>
<path d="M12.5003 20.4094C9.97032 20.4094 7.92113 18.3602 7.92113 15.8302C7.92113 13.3002 9.97032 11.251 12.5003 11.251C15.0304 11.251 17.0795 13.3002 17.0795 15.8302C17.0795 18.3602 15.0304 20.4094 12.5003 20.4094ZM12.5003 12.9682C10.9205 12.9682 9.63833 14.2504 9.63833 15.8302C9.63833 17.41 10.9205 18.6922 12.5003 18.6922C14.0802 18.6922 15.3623 17.41 15.3623 15.8302C15.3623 14.2504 14.0802 12.9682 12.5003 12.9682Z" fill="#292D32"/>
</svg>
