<svg width="53" height="46" viewBox="0 0 53 46" fill="none" xmlns="http://www.w3.org/2000/svg">
<g id="&#240;&#159;&#166;&#134; icon &#34;shopping cart&#34;">
<g id="Group">
<path id="Vector" d="M10.3319 26.7428C10.0096 29.8398 12.9791 32.4998 16.7544 32.4998H41.2702C44.585 32.4998 47.4855 30.2578 47.7387 27.5408L48.9818 13.2908C49.258 10.1368 46.3576 7.57178 42.5133 7.57178H12.795" stroke="#292D32" stroke-width="6.25883" stroke-miterlimit="10" stroke-linecap="round" stroke-linejoin="round"/>
<path id="Vector_2" d="M4 4H8.00544C10.4916 4 12.4482 5.767 12.241 7.8L11.0901 19.295" stroke="#292D32" stroke-width="6.25883" stroke-miterlimit="10" stroke-linecap="round" stroke-linejoin="round"/>
<path id="Vector_3" d="M36.803 42C38.3923 42 39.6805 40.9368 39.6805 39.625C39.6805 38.3132 38.3923 37.25 36.803 37.25C35.2137 37.25 33.9255 38.3132 33.9255 39.625C33.9255 40.9368 35.2137 42 36.803 42Z" stroke="#292D32" stroke-width="6.25883" stroke-miterlimit="10" stroke-linecap="round" stroke-linejoin="round"/>
<path id="Vector_4" d="M18.3873 42C19.9765 42 21.2647 40.9368 21.2647 39.625C21.2647 38.3132 19.9765 37.25 18.3873 37.25C16.7981 37.25 15.5098 38.3132 15.5098 39.625C15.5098 40.9368 16.7981 42 18.3873 42Z" stroke="#292D32" stroke-width="6.25883" stroke-miterlimit="10" stroke-linecap="round" stroke-linejoin="round"/>
<path id="Vector_5" d="M20.1138 15.4H47.7374" stroke="#292D32" stroke-width="6.25883" stroke-miterlimit="10" stroke-linecap="round" stroke-linejoin="round"/>
</g>
</g>
</svg>
