<svg width="31" height="33" viewBox="0 0 31 33" fill="none" xmlns="http://www.w3.org/2000/svg">
<path d="M23.4017 32.041C21.7693 32.041 20.0503 31.6386 18.2735 30.8637C16.5401 30.1036 14.7922 29.0604 13.0876 27.7937C11.3975 26.5121 9.76514 25.0814 8.21948 23.5166C6.68826 21.922 5.30149 20.238 4.07363 18.5093C2.83131 16.7209 1.83458 14.9326 1.12675 13.2039C0.375582 11.3559 0 9.56759 0 7.88358C0 6.72116 0.202237 5.61835 0.592265 4.59006C0.996738 3.53196 1.64678 2.54838 2.52796 1.69892C3.64026 0.566306 4.91146 0 6.26934 0C6.83271 0 7.41053 0.134125 7.90168 0.37257C8.46505 0.64082 8.94175 1.0432 9.28844 1.5797L12.6398 6.45291C12.9432 6.88509 13.1743 7.30237 13.3332 7.71965C13.521 8.16673 13.6221 8.61382 13.6221 9.046C13.6221 9.6123 13.4632 10.1637 13.1598 10.6853C12.9431 11.0877 12.6109 11.5199 12.192 11.952L11.2097 13.0101C11.2241 13.0548 11.2386 13.0847 11.253 13.1145C11.4264 13.4274 11.7731 13.9639 12.4376 14.7687C13.1454 15.6032 13.8099 16.3633 14.4744 17.0637C15.3267 17.9281 16.0345 18.6136 16.699 19.1799C17.5224 19.8952 18.0569 20.2529 18.3747 20.4168L18.3458 20.4913L19.4003 19.4183C19.8481 18.9564 20.2815 18.6136 20.7004 18.39C21.4949 17.8834 22.5061 17.7939 23.5172 18.2261C23.8928 18.39 24.2973 18.6136 24.7307 18.9265L29.5266 22.4436C30.061 22.8162 30.4511 23.2931 30.6822 23.8594C30.8989 24.4257 31 24.9473 31 25.4689C31 26.1842 30.8411 26.8995 30.5377 27.5702C30.2344 28.2408 29.8588 28.822 29.3821 29.3585C28.5587 30.2974 27.6631 30.968 26.623 31.4002C25.6263 31.8175 24.5429 32.041 23.4017 32.041ZM6.26934 2.23542C5.47484 2.23542 4.73812 2.59309 4.03029 3.30842C3.3658 3.94924 2.90354 4.64967 2.61463 5.40971C2.31128 6.18466 2.16682 7.00431 2.16682 7.88358C2.16682 9.26954 2.48462 10.7747 3.12022 12.3246C3.77027 13.9043 4.68034 15.5436 5.83597 17.1829C6.99161 18.8222 8.30615 20.4168 9.7507 21.922C11.1952 23.3974 12.7554 24.7684 14.3588 25.9756C15.9189 27.1529 17.5224 28.1067 19.1114 28.7922C21.5815 29.8801 23.8928 30.1334 25.7996 29.3138C26.5363 29.0008 27.1864 28.5239 27.7787 27.8384C28.1109 27.4659 28.3709 27.0635 28.5876 26.5866C28.761 26.214 28.8476 25.8265 28.8476 25.4391C28.8476 25.2006 28.8043 24.9622 28.6887 24.6939C28.6454 24.6045 28.5587 24.4406 28.2843 24.2468L23.4884 20.7298C23.1994 20.5211 22.9394 20.3721 22.6938 20.2678C22.376 20.1337 22.246 19.9995 21.7549 20.3125C21.466 20.4615 21.206 20.6851 20.9171 20.9831L19.8192 22.1008C19.2558 22.6672 18.3891 22.8013 17.7246 22.5479L17.3346 22.3691C16.7423 22.0412 16.0489 21.5345 15.2833 20.8639C14.5899 20.2529 13.8388 19.5376 12.9287 18.6136C12.2209 17.8685 11.513 17.0786 10.7763 16.1993C10.0974 15.3797 9.60624 14.6793 9.30289 14.098L9.12954 13.651C9.04287 13.3082 9.01398 13.1145 9.01398 12.9058C9.01398 12.3693 9.20177 11.8924 9.56291 11.5199L10.6463 10.3574C10.9352 10.0594 11.1519 9.77623 11.2964 9.52289C11.4119 9.32915 11.4553 9.16522 11.4553 9.01619C11.4553 8.89697 11.4119 8.71813 11.3397 8.5393C11.2386 8.30086 11.0797 8.03261 10.8774 7.74945L7.5261 2.86134C7.38164 2.6527 7.20829 2.50367 6.99161 2.39935C6.76048 2.29503 6.51491 2.23542 6.26934 2.23542ZM18.3458 20.5062L18.1146 21.5196L18.5047 20.4764C18.4324 20.4615 18.3747 20.4764 18.3458 20.5062Z" fill="#292D32"/>
</svg>
