<svg width="53" height="56" viewBox="0 0 53 56" fill="none" xmlns="http://www.w3.org/2000/svg">
<path d="M37.323 55.1703H15.6078C5.70024 55.1703 0 49.7815 0 40.4154V14.7548C0 5.38872 5.70024 0 15.6078 0H37.323C47.2305 0 52.9308 5.38872 52.9308 14.7548V40.4154C52.9308 49.7815 47.2305 55.1703 37.323 55.1703ZM15.6078 3.84909C7.84461 3.84909 4.0716 7.41591 4.0716 14.7548V40.4154C4.0716 47.7544 7.84461 51.3212 15.6078 51.3212H37.323C45.0862 51.3212 48.8592 47.7544 48.8592 40.4154V14.7548C48.8592 7.41591 45.0862 3.84909 37.323 3.84909H15.6078Z" fill="#292D32"/>
<path d="M44.109 20.5289H38.6802C34.5543 20.5289 31.2156 17.3726 31.2156 13.4722V8.34007C31.2156 7.28799 32.1385 6.41553 33.2514 6.41553C34.3643 6.41553 35.2872 7.28799 35.2872 8.34007V13.4722C35.2872 15.2428 36.8072 16.6798 38.6802 16.6798H44.109C45.2219 16.6798 46.1448 17.5522 46.1448 18.6043C46.1448 19.6564 45.2219 20.5289 44.109 20.5289Z" fill="#292D32"/>
<path d="M26.4654 32.0757H15.6078C14.4949 32.0757 13.572 31.2032 13.572 30.1511C13.572 29.099 14.4949 28.2266 15.6078 28.2266H26.4654C27.5783 28.2266 28.5012 29.099 28.5012 30.1511C28.5012 31.2032 27.5783 32.0757 26.4654 32.0757Z" fill="#292D32"/>
<path d="M37.323 42.3403H15.6078C14.4949 42.3403 13.572 41.4678 13.572 40.4158C13.572 39.3637 14.4949 38.4912 15.6078 38.4912H37.323C38.4359 38.4912 39.3588 39.3637 39.3588 40.4158C39.3588 41.4678 38.4359 42.3403 37.323 42.3403Z" fill="#292D32"/>
</svg>
