<svg width="44" height="44" viewBox="0 0 44 44" fill="none" xmlns="http://www.w3.org/2000/svg">
<path d="M42.5215 31.6424L36.0053 16.4033C34.8187 13.6136 33.0491 12.0314 31.0297 11.9273C29.0312 11.8232 27.095 13.218 25.6169 15.8828L21.6614 22.9819C20.8287 24.4809 19.6421 25.3761 18.3513 25.4801C17.0397 25.6051 15.7281 24.918 14.6664 23.5649L14.2084 22.9819C12.7303 21.1291 10.8983 20.2339 9.02461 20.4213C7.15096 20.6086 5.54794 21.8994 4.4862 24.002L0.884621 31.1844C-0.406119 33.7867 -0.281209 36.8054 1.23853 39.2619C2.75828 41.7185 5.40221 43.1966 8.29597 43.1966H34.8603C37.65 43.1966 40.2523 41.8018 41.7928 39.4701C43.375 37.1384 43.6249 34.2031 42.5215 31.6424Z" fill="#C5C5C5"/>
<path d="M11.1922 14.0732C15.0784 14.0732 18.2287 10.9229 18.2287 7.03662C18.2287 3.15041 15.0784 0 11.1922 0C7.30595 0 4.15555 3.15041 4.15555 7.03662C4.15555 10.9229 7.30595 14.0732 11.1922 14.0732Z" fill="#C5C5C5"/>
</svg>
