<svg width="56" height="43" viewBox="0 0 56 43" fill="none" xmlns="http://www.w3.org/2000/svg">
<g id="&#240;&#159;&#166;&#134; icon &#34;logout&#34;">
<g id="Group">
<path id="Vector" d="M36.8494 42.4582H36.4942C24.3646 42.4582 18.5183 38.8408 17.5075 30.7378C17.3982 29.8903 18.2178 29.1254 19.3652 29.0428C20.458 28.9601 21.4961 29.6009 21.6054 30.4484C22.3976 36.9391 26.4408 39.3576 36.5215 39.3576H36.8767C47.9955 39.3576 51.9295 36.3809 51.9295 27.9679V14.4903C51.9295 6.07726 47.9955 3.10065 36.8767 3.10065H36.5215C26.3862 3.10065 22.343 5.56049 21.6054 12.1752C21.4688 13.0227 20.5126 13.6635 19.3652 13.5808C18.2178 13.5188 17.3982 12.754 17.4802 11.9065C18.409 3.67943 24.2826 0 36.4942 0H36.8494C50.263 0 56 4.3409 56 14.4903V27.9679C56 38.1173 50.263 42.4582 36.8494 42.4582Z" fill="#292D32"/>
<path id="Vector_2" d="M36.1899 22.7794H5.10099C3.98091 22.7794 3.05206 22.0766 3.05206 21.2291C3.05206 20.3816 3.98091 19.6788 5.10099 19.6788H36.1899C37.31 19.6788 38.2388 20.3816 38.2388 21.2291C38.2388 22.0766 37.31 22.7794 36.1899 22.7794Z" fill="#292D32"/>
<path id="Vector_3" d="M11.194 29.7044C10.6749 29.7044 10.1558 29.5598 9.74605 29.2497L0.594188 22.3249C-0.198063 21.7255 -0.198063 20.7332 0.594188 20.1338L9.74605 13.209C10.5383 12.6095 11.8496 12.6095 12.6419 13.209C13.4341 13.8085 13.4341 14.8007 12.6419 15.4001L4.93791 21.2294L12.6419 27.0586C13.4341 27.658 13.4341 28.6502 12.6419 29.2497C12.2594 29.5598 11.713 29.7044 11.194 29.7044Z" fill="#292D32"/>
</g>
</g>
</svg>
