<svg width="44" height="44" viewBox="0 0 44 44" fill="none" xmlns="http://www.w3.org/2000/svg">
<g id="&#240;&#159;&#166;&#134; icon &#34;search normal 1&#34;">
<g id="Group">
<path id="Vector" d="M20.9768 41.9537C9.414 41.9537 0 32.5397 0 20.9768C0 9.414 9.414 0 20.9768 0C32.5397 0 41.9537 9.414 41.9537 20.9768C41.9537 32.5397 32.5397 41.9537 20.9768 41.9537ZM20.9768 3.06978C11.0921 3.06978 3.06978 11.1126 3.06978 20.9768C3.06978 30.8411 11.0921 38.8839 20.9768 38.8839C30.8615 38.8839 38.8839 30.8411 38.8839 20.9768C38.8839 11.1126 30.8615 3.06978 20.9768 3.06978Z" fill="#292D32"/>
<path id="Vector_2" d="M42.4661 44.0001C42.0773 44.0001 41.6885 43.8569 41.3815 43.5499L37.2884 39.4568C36.6949 38.8633 36.6949 37.881 37.2884 37.2875C37.8819 36.694 38.8643 36.694 39.4578 37.2875L43.5508 41.3806C44.1443 41.9741 44.1443 42.9564 43.5508 43.5499C43.2438 43.8569 42.855 44.0001 42.4661 44.0001Z" fill="#292D32"/>
</g>
</g>
</svg>
