<svg width="30" height="30" viewBox="0 0 30 30" fill="none" xmlns="http://www.w3.org/2000/svg">
<path d="M14.3037 28.6074C6.41923 28.6074 0 22.1882 0 14.3037C0 6.41923 6.41923 0 14.3037 0C22.1882 0 28.6075 6.41923 28.6075 14.3037C28.6075 22.1882 22.1882 28.6074 14.3037 28.6074ZM14.3037 2.09323C7.56353 2.09323 2.09323 7.57748 2.09323 14.3037C2.09323 21.03 7.56353 26.5142 14.3037 26.5142C21.0439 26.5142 26.5142 21.03 26.5142 14.3037C26.5142 7.57748 21.0439 2.09323 14.3037 2.09323Z" fill="#C5C5C5"/>
<path d="M28.9569 30.0027C28.6917 30.0027 28.4266 29.905 28.2173 29.6957L25.4263 26.9047C25.0216 26.5001 25.0216 25.8302 25.4263 25.4255C25.831 25.0208 26.5008 25.0208 26.9055 25.4255L29.6965 28.2165C30.1012 28.6212 30.1012 29.291 29.6965 29.6957C29.4872 29.905 29.222 30.0027 28.9569 30.0027Z" fill="#C5C5C5"/>
</svg>
