<svg width="56" height="53" viewBox="0 0 56 53" fill="none" xmlns="http://www.w3.org/2000/svg">
<rect width="56" height="53" fill="white"/>
<g id="perfil">
<g clip-path="url(#clip0_0_1)">
<rect x="-32" y="-643" width="390" height="844" rx="50" fill="#F1F1F1"/>
<g id="&#240;&#159;&#166;&#134; icon &#34;menu 1&#34;">
<path id="Vector" d="M39.7518 0H16.2761C6.07903 0 0 5.7505 0 15.3965V37.577C0 47.2495 6.07903 53 16.2761 53H39.7238C49.9209 53 55.9999 47.2495 55.9999 37.6035V15.3965C56.0279 5.7505 49.9489 0 39.7518 0ZM42.0209 40.4125H14.007C12.8584 40.4125 11.9059 39.5115 11.9059 38.425C11.9059 37.3385 12.8584 36.4375 14.007 36.4375H42.0209C43.1695 36.4375 44.122 37.3385 44.122 38.425C44.122 39.5115 43.1695 40.4125 42.0209 40.4125ZM42.0209 28.4875H14.007C12.8584 28.4875 11.9059 27.5865 11.9059 26.5C11.9059 25.4135 12.8584 24.5125 14.007 24.5125H42.0209C43.1695 24.5125 44.122 25.4135 44.122 26.5C44.122 27.5865 43.1695 28.4875 42.0209 28.4875ZM42.0209 16.5625H14.007C12.8584 16.5625 11.9059 15.6615 11.9059 14.575C11.9059 13.4885 12.8584 12.5875 14.007 12.5875H42.0209C43.1695 12.5875 44.122 13.4885 44.122 14.575C44.122 15.6615 43.1695 16.5625 42.0209 16.5625Z" fill="#292D32"/>
</g>
</g>
<rect x="-30" y="-641" width="386" height="840" rx="48" stroke="black" stroke-width="4"/>
</g>
<defs>
<clipPath id="clip0_0_1">
<rect x="-32" y="-643" width="390" height="844" rx="50" fill="white"/>
</clipPath>
</defs>
</svg>
