<svg width="20" height="26" viewBox="0 0 20 26" fill="none" xmlns="http://www.w3.org/2000/svg">
<path d="M10.2715 17.6381C7.27264 17.6381 4.83459 15.2 4.83459 12.2011V5.9057C4.83459 2.9068 7.27264 0.46875 10.2715 0.46875C13.2705 0.46875 15.7085 2.9068 15.7085 5.9057V12.2011C15.7085 15.2 13.2705 17.6381 10.2715 17.6381ZM10.2715 2.18568C8.22268 2.18568 6.55153 3.85683 6.55153 5.9057V12.2011C6.55153 14.25 8.22268 15.9211 10.2715 15.9211C12.3204 15.9211 13.9916 14.25 13.9916 12.2011V5.9057C13.9916 3.85683 12.3204 2.18568 10.2715 2.18568Z" fill="#292D32"/>
<path d="M10.2711 21.6442C4.97148 21.6442 0.65625 17.329 0.65625 12.0294V10.0836C0.65625 9.61427 1.04542 9.2251 1.51472 9.2251C1.98401 9.2251 2.37318 9.61427 2.37318 10.0836V12.0294C2.37318 16.379 5.92151 19.9273 10.2711 19.9273C14.6206 19.9273 18.169 16.379 18.169 12.0294V10.0836C18.169 9.61427 18.5581 9.2251 19.0274 9.2251C19.4967 9.2251 19.8859 9.61427 19.8859 10.0836V12.0294C19.8859 17.329 15.5707 21.6442 10.2711 21.6442Z" fill="#292D32"/>
<path d="M11.8625 7.25643C11.7709 7.25643 11.6679 7.24498 11.5649 7.21064C10.7293 6.90159 9.81358 6.90159 8.97801 7.21064C8.5316 7.37089 8.03942 7.14196 7.87915 6.69556C7.7189 6.24916 7.94783 5.75697 8.39425 5.59673C9.60755 5.16177 10.9468 5.16177 12.1601 5.59673C12.6065 5.75697 12.8354 6.24916 12.6751 6.69556C12.5378 7.03895 12.2058 7.25643 11.8625 7.25643Z" fill="#292D32"/>
<path d="M11.1874 9.68282C11.1072 9.68282 11.0386 9.67138 10.9584 9.64848C10.5006 9.52257 10.0313 9.52257 9.57344 9.64848C9.11559 9.77439 8.6463 9.49968 8.52039 9.04183C8.39448 8.59543 8.66919 8.12614 9.12704 8.00023C9.87104 7.7942 10.6723 7.7942 11.4163 8.00023C11.8741 8.12614 12.1488 8.59543 12.0229 9.05328C11.9199 9.431 11.5651 9.68282 11.1874 9.68282Z" fill="#292D32"/>
<path d="M10.2715 25.0785C9.80224 25.0785 9.41307 24.6894 9.41307 24.2201V20.7862C9.41307 20.3169 9.80224 19.9277 10.2715 19.9277C10.7408 19.9277 11.13 20.3169 11.13 20.7862V24.2201C11.13 24.6894 10.7408 25.0785 10.2715 25.0785Z" fill="#292D32"/>
</svg>
