<svg width="53" height="66" viewBox="0 0 53 66" fill="none" xmlns="http://www.w3.org/2000/svg">
<path d="M26.5258 58.3699C19.4971 58.3699 12.4684 57.2538 5.8018 55.0215C3.26788 54.1467 1.33727 52.367 0.492627 50.0442C-0.38218 47.7214 -0.0805227 45.1573 1.3071 42.8647L4.77617 37.1031C5.50014 35.8965 6.16379 33.4832 6.16379 32.0654V23.3475C6.16379 12.1259 15.304 2.98566 26.5258 2.98566C37.7474 2.98566 46.8877 12.1259 46.8877 23.3475V32.0654C46.8877 33.453 47.5513 35.8964 48.2753 37.1332L51.7142 42.8647C53.0113 45.0367 53.2526 47.6611 52.3778 50.0442C51.503 52.4273 49.6026 54.2372 47.2195 55.0215C40.583 57.2538 33.5544 58.3699 26.5258 58.3699ZM26.5258 7.51052C17.8078 7.51052 10.6887 14.5995 10.6887 23.3475V32.0654C10.6887 34.2675 9.78368 37.5254 8.66755 39.4258L5.19849 45.1875C4.53484 46.3036 4.35385 47.4801 4.746 48.4756C5.10799 49.5012 6.01296 50.2855 7.24976 50.7078C19.859 54.931 33.2226 54.931 45.8319 50.7078C46.9178 50.3459 47.7625 49.5314 48.1546 48.4454C48.5468 47.3594 48.4563 46.183 47.853 45.1875L44.3839 39.4258C43.2376 37.4651 42.3628 34.2373 42.3628 32.0352V23.3475C42.3628 14.5995 35.2738 7.51052 26.5258 7.51052Z" fill="#292D32"/>
<path d="M32.1357 8.32575C31.9245 8.32575 31.7133 8.29559 31.5022 8.23525C30.6274 7.99393 29.7827 7.81293 28.9683 7.69227C26.4042 7.36045 23.9306 7.54144 21.6078 8.23525C20.7632 8.50675 19.8583 8.23525 19.2851 7.60177C18.712 6.96829 18.531 6.06332 18.8628 5.24884C20.0996 2.08144 23.1161 0 26.555 0C29.9939 0 33.0105 2.05127 34.2473 5.24884C34.5489 6.06332 34.3981 6.96829 33.8249 7.60177C33.3725 8.08443 32.739 8.32575 32.1357 8.32575Z" fill="#292D32"/>
<path d="M26.5246 65.2484C23.5382 65.2484 20.6423 64.0417 18.5308 61.9301C16.4192 59.8185 15.2125 56.9226 15.2125 53.9362H19.7374C19.7374 55.716 20.4613 57.4656 21.7282 58.7326C22.9952 59.9995 24.7448 60.7235 26.5246 60.7235C30.2652 60.7235 33.3119 57.6768 33.3119 53.9362H37.8368C37.8368 60.1805 32.7689 65.2484 26.5246 65.2484Z" fill="#292D32"/>
</svg>
