<svg width="53" height="53" viewBox="0 0 53 53" fill="none" xmlns="http://www.w3.org/2000/svg">
<path d="M50.9841 43.5681L46.6194 44.5997C45.6407 44.8378 44.8735 45.5785 44.6619 46.5572L43.7361 50.4458C43.2335 52.562 40.5353 53.2234 39.1333 51.5568L31.2239 42.4571C30.589 41.7164 30.9329 40.5525 31.8852 40.3144C36.5674 39.1769 40.7734 36.5581 43.8683 32.8282C44.3709 32.2198 45.2703 32.1404 45.8258 32.696L51.6984 38.5685C53.7088 40.5789 52.9946 43.0919 50.9841 43.5681Z" fill="#292D32"/>
<path d="M1.91154 43.5681L6.27626 44.5997C7.25502 44.8378 8.02215 45.5785 8.23377 46.5572L9.15962 50.4458C9.66222 52.562 12.3604 53.2234 13.7624 51.5568L21.6718 42.4571C22.3067 41.7164 21.9628 40.5525 21.0105 40.3144C16.3283 39.1769 12.1223 36.5581 9.02736 32.8282C8.52475 32.2198 7.62536 32.1404 7.06985 32.696L1.19732 38.5685C-0.813097 40.5789 -0.0988709 43.0919 1.91154 43.5681Z" fill="#292D32"/>
<path d="M26.5148 0C16.2776 0 7.99786 8.27974 7.99786 18.517C7.99786 22.3526 9.13534 25.8709 11.0928 28.8071C13.9498 33.0396 18.4732 36.0288 23.7373 36.7959C24.6367 36.9546 25.5625 37.034 26.5148 37.034C27.4671 37.034 28.393 36.9546 29.2924 36.7959C34.5565 36.0288 39.0799 33.0396 41.9368 28.8071C43.8944 25.8709 45.0318 22.3526 45.0318 18.517C45.0318 8.27974 36.7521 0 26.5148 0ZM34.6094 17.935L32.4138 20.1306C32.0435 20.5009 31.8319 21.2152 31.9641 21.7442L32.599 24.4689C33.1016 26.6115 31.9641 27.458 30.0595 26.3206L27.4142 24.7598C26.9381 24.4689 26.1445 24.4689 25.6684 24.7598L23.0231 26.3206C21.1185 27.4316 19.981 26.6115 20.4836 24.4689L21.1185 21.7442C21.2243 21.2416 21.0391 20.5009 20.6688 20.1306L18.4203 17.935C17.1241 16.6388 17.5473 15.3426 19.3461 15.0517L22.1766 14.5755C22.6527 14.4962 23.2082 14.0729 23.4199 13.6497L24.9806 10.5282C25.8271 8.83525 27.2026 8.83525 28.0491 10.5282L29.6098 13.6497C29.8215 14.0729 30.377 14.4962 30.8796 14.5755L33.71 15.0517C35.4824 15.3426 35.9056 16.6388 34.6094 17.935Z" fill="#292D32"/>
</svg>
