<svg width="53" height="44" viewBox="0 0 53 44" fill="none" xmlns="http://www.w3.org/2000/svg">
<path d="M38.7492 43.0547H14.1465C3.29676 43.0547 0 39.7579 0 28.9082V27.678C0 26.6693 0.836491 25.8328 1.8452 25.8328C4.20706 25.8328 6.15067 23.8892 6.15067 21.5273C6.15067 19.1655 4.20706 17.2219 1.8452 17.2219C0.836491 17.2219 0 16.3854 0 15.3767V14.1465C0 3.29676 3.29676 0 14.1465 0H38.7492C49.599 0 52.8958 3.29676 52.8958 14.1465V16.6068C52.8958 17.6155 52.0593 18.452 51.0506 18.452C48.6887 18.452 46.7451 20.3956 46.7451 22.7575C46.7451 25.1193 48.6887 27.063 51.0506 27.063C52.0593 27.063 52.8958 27.8994 52.8958 28.9082C52.8958 39.7579 49.599 43.0547 38.7492 43.0547ZM3.6904 29.3018C3.73961 37.7651 5.4864 39.3643 14.1465 39.3643H38.7492C46.9665 39.3643 48.9593 37.9127 49.1808 30.5319C45.6626 29.6954 43.0547 26.5217 43.0547 22.7575C43.0547 18.9933 45.6872 15.8195 49.2054 14.983V14.1465C49.2054 5.36339 47.557 3.6904 38.7492 3.6904H14.1465C5.4864 3.6904 3.73961 5.28958 3.6904 13.7529C7.20859 14.5894 9.84107 17.7631 9.84107 21.5273C9.84107 25.2916 7.20859 28.4653 3.6904 29.3018Z" fill="#292D32"/>
<path d="M21.5273 9.84107C20.5186 9.84107 19.6821 9.00458 19.6821 7.99587V1.8452C19.6821 0.836491 20.5186 0 21.5273 0C22.536 0 23.3725 0.836491 23.3725 1.8452V7.99587C23.3725 9.00458 22.536 9.84107 21.5273 9.84107Z" fill="#292D32"/>
<path d="M21.5273 27.8753C20.5186 27.8753 19.6821 27.0388 19.6821 26.0301V17.0009C19.6821 15.9921 20.5186 15.1556 21.5273 15.1556C22.536 15.1556 23.3725 15.9921 23.3725 17.0009V26.0301C23.3725 27.0634 22.536 27.8753 21.5273 27.8753Z" fill="#292D32"/>
<path d="M21.5273 43.0547C20.5186 43.0547 19.6821 42.2182 19.6821 41.2095V35.0588C19.6821 34.0501 20.5186 33.2136 21.5273 33.2136C22.536 33.2136 23.3725 34.0501 23.3725 35.0588V41.2095C23.3725 42.2182 22.536 43.0547 21.5273 43.0547Z" fill="#292D32"/>
</svg>
