<svg width="60" height="60" viewBox="0 0 60 60" fill="none" xmlns="http://www.w3.org/2000/svg">
<path d="M29.9818 0C13.4618 0 0 13.4618 0 29.9818C0 46.5017 13.4618 59.9635 29.9818 59.9635C46.5017 59.9635 59.9635 46.5017 59.9635 29.9818C59.9635 13.4618 46.5017 0 29.9818 0ZM44.313 23.0859L27.3134 40.0856C26.8936 40.5053 26.324 40.7452 25.7243 40.7452C25.1247 40.7452 24.5551 40.5053 24.1353 40.0856L15.6505 31.6008C14.781 30.7313 14.781 29.2922 15.6505 28.4227C16.5199 27.5532 17.9591 27.5532 18.8285 28.4227L25.7243 35.3185L41.135 19.9079C42.0044 19.0384 43.4436 19.0384 44.313 19.9079C45.1825 20.7774 45.1825 22.1865 44.313 23.0859Z" fill="#292D32"/>
</svg>
