<svg width="55" height="52" viewBox="0 0 55 52" fill="none" xmlns="http://www.w3.org/2000/svg">
<path d="M15.1619 51.1401C9.07624 51.1401 4.09021 46.7165 4.09021 41.2701V36.0539C4.09021 35.0055 4.95959 34.1361 6.00795 34.1361C7.05632 34.1361 7.92569 35.0055 7.92569 36.0539C7.92569 39.2501 11.0195 41.6537 15.1619 41.6537C19.3042 41.6537 22.3982 39.2501 22.3982 36.0539C22.3982 35.0055 23.2675 34.1361 24.3159 34.1361C25.3643 34.1361 26.2336 35.0055 26.2336 36.0539V41.2701C26.2336 46.7165 21.2731 51.1401 15.1619 51.1401ZM8.59038 43.776C9.71546 45.8727 12.2469 47.3046 15.1619 47.3046C18.0768 47.3046 20.6083 45.8471 21.7334 43.776C19.9179 44.8755 17.6677 45.5147 15.1619 45.5147C12.656 45.5147 10.4058 44.8755 8.59038 43.776Z" fill="#292D32"/>
<path d="M15.1619 38.4824C10.9684 38.4824 7.20971 36.5647 5.34311 33.5219C4.52487 32.1922 4.09021 30.6325 4.09021 29.0471C4.09021 26.3623 5.2664 23.8564 7.41427 21.9898C11.5566 18.359 18.6905 18.3591 22.8584 21.9645C25.0063 23.8567 26.2081 26.3623 26.2081 29.0471C26.2081 30.6325 25.7734 32.1922 24.9551 33.5219C23.1141 36.5647 19.3553 38.4824 15.1619 38.4824ZM15.1619 23.0126C13.1674 23.0126 11.3264 23.6774 9.94566 24.8792C8.6416 26.0043 7.92569 27.4874 7.92569 29.0471C7.92569 29.9421 8.15572 30.7606 8.61598 31.5277C9.79219 33.471 12.298 34.6725 15.1619 34.6725C18.0257 34.6725 20.5315 33.471 21.6822 31.5532C22.1424 30.8117 22.3726 29.9676 22.3726 29.0727C22.3726 27.5129 21.6567 26.0299 20.3526 24.8792C18.9974 23.6774 17.1563 23.0126 15.1619 23.0126Z" fill="#292D32"/>
<path d="M15.1619 45.5144C8.84611 45.5144 4.09021 41.4488 4.09021 36.0791V29.0474C4.09021 23.601 9.05067 19.1774 15.1619 19.1774C18.0513 19.1774 20.8129 20.1747 22.884 21.9645C25.0319 23.8567 26.2336 26.3626 26.2336 29.0474V36.0791C26.2336 41.4488 21.4776 45.5144 15.1619 45.5144ZM15.1619 23.0129C11.173 23.0129 7.92569 25.7233 7.92569 29.0474V36.0791C7.92569 39.2754 11.0195 41.6789 15.1619 41.6789C19.3042 41.6789 22.3982 39.2754 22.3982 36.0791V29.0474C22.3982 27.4876 21.6823 26.0046 20.3782 24.8539C18.9975 23.6777 17.1563 23.0129 15.1619 23.0129Z" fill="#292D32"/>
<path d="M45.5136 30.8122C41.6525 30.8122 38.3796 27.9484 38.0728 24.2663C37.8682 22.144 38.6353 20.0728 40.1695 18.5642C41.448 17.2345 43.2635 16.493 45.1812 16.493H50.5253C53.0567 16.5698 55 18.5642 55 21.0189V26.2863C55 28.741 53.0567 30.7355 50.602 30.8122H45.5136ZM50.4486 20.3285H45.2068C44.3118 20.3285 43.4936 20.6609 42.9055 21.2746C42.1639 21.9906 41.806 22.9622 41.9082 23.9339C42.0361 25.6215 43.6726 26.9767 45.5136 26.9767H50.5253C50.8577 26.9767 51.1645 26.6699 51.1645 26.2863V21.0189C51.1645 20.6354 50.8577 20.3541 50.4486 20.3285Z" fill="#292D32"/>
<path d="M37.7411 47.3043H31.3486C30.3002 47.3043 29.4309 46.4349 29.4309 45.3866C29.4309 44.3382 30.3002 43.4688 31.3486 43.4688H37.7411C44.3381 43.4688 48.6083 39.1986 48.6083 32.6016V30.8117H45.5143C41.6533 30.8117 38.3803 27.9479 38.0735 24.2658C37.8689 22.1435 38.6363 20.0724 40.1705 18.5637C41.449 17.2341 43.2642 16.4926 45.1819 16.4926H48.5827V14.7027C48.5827 8.71933 45.0799 4.60253 39.4034 3.93771C38.7897 3.83543 38.2525 3.83548 37.7155 3.83548H14.7027C14.089 3.83548 13.5009 3.8866 12.9128 3.96331C7.28739 4.67927 3.83548 8.77047 3.83548 14.7027V19.8167C3.83548 20.865 2.96611 21.7344 1.91774 21.7344C0.869376 21.7344 0 20.865 0 19.8167V14.7027C0 6.82716 4.85838 1.1251 12.4015 0.179015C13.0919 0.0767351 13.8845 0 14.7027 0H37.7155C38.3292 0 39.1219 0.0255697 39.9401 0.153419C47.4832 1.0228 52.4182 6.75045 52.4182 14.7027V18.4103C52.4182 19.4587 51.5488 20.3281 50.5005 20.3281H45.1819C44.287 20.3281 43.469 20.6605 42.8809 21.2741C42.1394 21.9901 41.7811 22.9618 41.8834 23.9334C42.0113 25.621 43.648 26.9762 45.489 26.9762H50.526C51.5744 26.9762 52.4438 27.8456 52.4438 28.894V32.6016C52.4438 41.3977 46.5371 47.3043 37.7411 47.3043Z" fill="#292D32"/>
</svg>
