<svg width="54" height="55" viewBox="0 0 64 59" fill="none" xmlns="http://www.w3.org/2000/svg">
<path d="M61 29.5V42.75C61 50.7 55.2 56 46.5 56H17.5C8.8 56 3 50.7 3 42.75V29.5C3 22.292 7.756 17.257 15.151 16.409C15.905 16.303 16.688 16.25 17.5 16.25H46.5C47.254 16.25 47.979 16.2765 48.675 16.3825C56.157 17.1775 61 22.239 61 29.5Z" stroke="#292D32" stroke-width="6.0158" stroke-linecap="round" stroke-linejoin="round"/>
<path d="M48.6791 16.3825C47.9831 16.2765 47.2581 16.25 46.5041 16.25H17.5041C16.6921 16.25 15.9091 16.303 15.1551 16.409C15.5611 15.667 16.1411 14.978 16.8371 14.342L26.2621 5.703C30.2351 2.099 36.6731 2.099 40.6461 5.703L45.7211 10.3936C47.5771 12.0631 48.5631 14.183 48.6791 16.3825Z" stroke="#292D32" stroke-width="6.0158" stroke-linecap="round" stroke-linejoin="round"/>
<path d="M61 30.8252H52.3C49.11 30.8252 46.5 33.2102 46.5 36.1252C46.5 39.0402 49.11 41.4252 52.3 41.4252H61" stroke="#292D32" stroke-width="6.0158" stroke-linecap="round" stroke-linejoin="round"/>
</svg>
